<?xml version="1.0" encoding="utf-8"?>
<!-- Generator: Adobe Illustrator 15.1.0, SVG Export Plug-In . SVG Version: 6.00 Build 0)  -->
<!DOCTYPE svg PUBLIC "-//W3C//DTD SVG 1.1//EN" "http://www.w3.org/Graphics/SVG/1.1/DTD/svg11.dtd">
<svg version="1.1" id="Layer_1" xmlns="http://www.w3.org/2000/svg" xmlns:xlink="http://www.w3.org/1999/xlink" x="0px" y="0px"
	 width="1280px" height="1680px" viewBox="0 0 1280 1680" enable-background="new 0 0 1280 1680" xml:space="preserve">
<g>
	<g>
		<path d="M0,808.827v59.286c0,38.556,32.416,71.805,70.993,71.805h858.516l-272.296,271.36
			c-13.186,13.164-20.418,29.804-20.418,48.525c0,18.731,7.232,36.298,20.418,49.451l41.896,41.918
			c13.174,13.153,30.73,20.407,49.451,20.407c18.742,0,36.298-7.243,49.473-20.407l461.56-461.56
			c13.227-13.206,20.46-30.835,20.407-49.681c0.053-18.742-7.181-36.36-20.407-49.587l-461.56-461.519
			c-13.175-13.174-30.741-20.407-49.473-20.407c-18.721,0-36.277,7.285-49.451,20.459l-41.896,41.917
			c-13.186,13.206-20.418,30.928-20.418,49.66c0,18.731,7.232,36.578,20.418,49.753l269.258,269.852H69.952l1.999-0.438
			C33.374,739.624,0,770.271,0,808.827z"/>
	</g>
</g>
</svg>
