<?xml version="1.0" encoding="utf-8"?>
<!-- Generator: Adobe Illustrator 15.1.0, SVG Export Plug-In . SVG Version: 6.00 Build 0)  -->
<!DOCTYPE svg PUBLIC "-//W3C//DTD SVG 1.1//EN" "http://www.w3.org/Graphics/SVG/1.1/DTD/svg11.dtd">
<svg version="1.1" id="background" xmlns="http://www.w3.org/2000/svg" xmlns:xlink="http://www.w3.org/1999/xlink" x="0px" y="0px"
	 width="90px" height="80px" viewBox="-1.223 0.992 90 80" enable-background="new -1.223 0.992 90 80" xml:space="preserve">
<g>
	<path fill="#F5005A" d="M11.866,10.762c-2.573,0-3.088,0.529-3.088,2.601c0,0.981,0,4.268,0,4.268c0,1.583,0.568,1.908,2.233,1.908
		c0.955,0,17.613,0,17.613,0c1.281,0,1.607,0.661,1.607,1.976c0,1.008,0,9.829,0,9.829c0,1.17,0.66,1.848,2.155,1.848h5.417
		c1.692,0,2.18-0.934,2.18-1.848c0-0.944,0-9.792,0-9.792c0-1.368,0.284-2.012,1.667-2.012c1.053,0,22.028,0,22.028,0
		c5.597,0,6.586,4.685,6.586,6.324c0,1.744-0.972,7.329-6.693,7.329c-1.152,0-8.494,0-8.494,0c-1.587,0-2.417,0.309-2.417,1.677
		c0,0.792,0,3.965,0,3.965c0,1.546,0.83,2.16,2.381,2.16c0.935,0,8.528,0,8.528,0c10.132,0,15.208-8.634,15.208-15.618
		c0-5.979-5.103-14.613-15.208-14.613C62.545,10.762,11.866,10.762,11.866,10.762z"/>
	<path fill="#F5005A" d="M37.803,71.223c0,0-2.88,0-4.32,0c-1.26,0-2.276-0.796-2.276-2.146c0-1.331,0-22.216,0-23.871
		c0-4.717,4.415-8.593,8.661-8.593c3.672,0,6.202,1.877,6.94,2.616c0.736,0.738,27.334,27.339,28.344,28.347
		c1.171,1.172,0.668,3.647-1.265,3.647c-1.935,0-5.675,0-7.187,0c-0.882,0-1.259-0.408-1.727-0.876
		c-0.468-0.467-20.209-20.275-21.249-21.317c-1.665-1.666-3.741-0.395-3.741,1.432c0,1.549,0,17.427,0,18.614
		C39.983,70.29,39.07,71.223,37.803,71.223z"/>
</g>
</svg>
