<?xml version="1.0" encoding="utf-8"?>
<svg version="1.1" xmlns="http://www.w3.org/2000/svg" xmlns:xlink="http://www.w3.org/1999/xlink" x="0px" y="0px" width="90px" height="80px" viewBox="0 0 90 80" enable-background="new 0 0 90 80" xml:space="preserve">
	<switch>
		<g>
			<path fill="#F5005A" d="M13.707,8.736c-2.411,0-4.467,1.931-4.467,4.555S11.269,18,13.707,18c2.736,0,15.76,0,15.76,0
				C30.621,18,31,18.761,31,19.989c0,1.042,0,6.601,0,6.601c0,2.122,2.305,4.54,5.152,4.54S41,28.582,41,26.59
				c0-1.796,0-6.601,0-6.601C41,18.593,41.322,18,42.782,18c1.34,0,22.438,0,22.438,0c3.033,0,6.701,2.154,6.701,6.323
				c0,4.17-2.773,6.677-6.7,6.677c-3.928,0-6.719,0-6.719,0c-2.903,0-4.523,2.545-4.523,4.264c0,2.32,1.871,4.757,4.226,4.757
				c2.606,0,6.942-0.018,6.942-0.018c9.437,0,15.635-8.211,15.635-15.722S74.416,8.727,65.816,8.727
				C57.218,8.727,13.707,8.736,13.707,8.736z"/>
			<path fill="#F5005A" d="M35.789,71.376c2.755-0.005,4.635-2.266,4.691-4.472c0.056-2.206,0.046-21.554,0.046-21.554
				c0-0.697,0.83-1.079,1.412-0.53l25.339,25.295c0.971,0.97,2.028,1.261,3.055,1.261c3.946,0,5.861-4.966,3.414-7.413
				c-2.626-2.626-27.33-27.081-27.33-27.081C41.869,32.336,31,35.97,31,44.458c0,7.072,0,22.446,0,22.446
				C31,69.082,32.923,71.381,35.789,71.376z"/>
		</g>
	</switch>
</svg>
