<?xml version="1.0" encoding="utf-8"?>
<!-- Generator: Adobe Illustrator 15.1.0, SVG Export Plug-In . SVG Version: 6.00 Build 0)  -->
<!DOCTYPE svg PUBLIC "-//W3C//DTD SVG 1.1//EN" "http://www.w3.org/Graphics/SVG/1.1/DTD/svg11.dtd">
<svg version="1.1" xmlns="http://www.w3.org/2000/svg" xmlns:xlink="http://www.w3.org/1999/xlink" x="0px" y="0px" width="96px" height="92px" viewBox="0 0 96 92" enable-background="new 0 0 96 92" xml:space="preserve">
<g id="molde" display="none">
	<circle display="inline" fill="none" stroke="#E6E6E6" stroke-miterlimit="10" cx="-1475.5" cy="-2304" r="12.5"/>
	<circle display="inline" fill="none" stroke="#E6E6E6" stroke-miterlimit="10" cx="-1475.5" cy="-2230" r="12.5"/>
	<circle display="inline" fill="none" stroke="#E6E6E6" stroke-miterlimit="10" cx="-1199.5" cy="-2205" r="12.5"/>
	<circle display="inline" fill="none" stroke="#E6E6E6" stroke-miterlimit="10" cx="-1075.5" cy="-2205" r="12.5"/>
	<circle display="inline" fill="none" stroke="#E6E6E6" stroke-miterlimit="10" cx="-900.5" cy="-2205" r="12.5"/>
	<circle display="inline" fill="none" stroke="#E6E6E6" stroke-miterlimit="10" cx="-900.5" cy="-2130" r="12.5"/>
	<circle display="inline" fill="none" stroke="#E6E6E6" stroke-miterlimit="10" cx="-801.5" cy="-2304" r="12.5"/>
	<circle display="inline" fill="none" stroke="#E6E6E6" stroke-miterlimit="10" cx="-801.5" cy="-2080" r="12.5"/>
	<circle display="inline" fill="none" stroke="#E6E6E6" stroke-miterlimit="10" cx="-801.5" cy="-2030" r="12.5"/>
	<circle display="inline" fill="none" stroke="#E6E6E6" stroke-miterlimit="10" cx="-975.5" cy="-2030" r="12.5"/>
	<circle display="inline" fill="none" stroke="#E6E6E6" stroke-miterlimit="10" cx="-975.5" cy="-2105" r="12.5"/>
	<circle display="inline" fill="none" stroke="#E6E6E6" stroke-miterlimit="10" cx="-1174.5" cy="-2130" r="12.5"/>
	<circle display="inline" fill="none" stroke="#E6E6E6" stroke-miterlimit="10" cx="-1174.5" cy="-2054" r="12.5"/>
	<circle display="inline" fill="none" stroke="#E6E6E6" stroke-miterlimit="10" cx="-1091.5" cy="-2054" r="12.5"/>
	<circle display="inline" fill="none" stroke="#E6E6E6" stroke-miterlimit="10" cx="-1174.5" cy="-1830" r="12.5"/>
	<circle display="inline" fill="none" stroke="#E6E6E6" stroke-miterlimit="10" cx="-1099.5" cy="-1830" r="12.5"/>
	<circle display="inline" fill="none" stroke="#E6E6E6" stroke-miterlimit="10" cx="-1074.5" cy="-1897" r="12.5"/>
	<circle display="inline" fill="none" stroke="#E6E6E6" stroke-miterlimit="10" cx="-972.5" cy="-1830" r="12.5"/>
	<circle display="inline" fill="none" stroke="#E6E6E6" stroke-miterlimit="10" cx="-865.5" cy="-1830" r="12.5"/>
	<circle display="inline" fill="none" stroke="#E6E6E6" stroke-miterlimit="10" cx="-1100.5" cy="-2130" r="12.5"/>

		<line display="inline" fill="none" stroke="#E6E6E6" stroke-miterlimit="10" x1="-1446.518" y1="-2427.518" x2="-766.985" y2="-1747.984"/>

		<line display="inline" fill="none" stroke="#E6E6E6" stroke-miterlimit="10" x1="-1516.518" y1="-2357.518" x2="-836.985" y2="-1677.984"/>
</g>
<g id="circulos" display="none">
	<circle display="inline" fill="none" stroke="#E6E6E6" stroke-miterlimit="10" cx="-987.5" cy="-2117.5" r="200"/>
	<circle display="inline" fill="none" stroke="#E6E6E6" stroke-miterlimit="10" cx="-975.285" cy="-1868.286" r="50"/>
	<circle display="inline" fill="none" stroke="#E6E6E6" stroke-miterlimit="10" cx="-1337.5" cy="-2167.5" r="150"/>
	<circle display="inline" fill="none" stroke="#E6E6E6" stroke-miterlimit="10" cx="-1286.698" cy="-1918.303" r="100"/>
	<circle display="inline" fill="none" stroke="#E6E6E6" stroke-miterlimit="10" cx="-987.5" cy="-2167.5" r="150"/>
</g>
<g id="base" display="none">
	<g display="inline">
		<path fill="#666666" d="M-1106-2901c27.019,0,49,21.981,49,49s-21.981,49-49,49s-49-21.981-49-49S-1133.019-2901-1106-2901
			 M-1106-2902c-27.614,0-50,22.386-50,50s22.386,50,50,50s50-22.386,50-50S-1078.386-2902-1106-2902L-1106-2902z"/>
	</g>
	<g display="inline">
		<path fill="#666666" d="M-1234-2863v98h-198v-98H-1234 M-1233-2864h-200v100h200V-2864L-1233-2864z"/>
	</g>
	<g display="inline">
		<g>
			<path fill="#E6E6E6" d="M-1088-2067v248h-98v-248H-1088 M-1087-2068h-100v250h100V-2068L-1087-2068z"/>
		</g>
	</g>
	<g display="inline">
		<g>
			<path fill="#E6E6E6" d="M-1088-2316v198h-98v-198H-1088 M-1087-2317h-100v200h100V-2317L-1087-2317z"/>
		</g>
	</g>
	<g display="inline">
		<g>
			<path fill="#E6E6E6" d="M-789-2316v248h-98v-248H-789 M-788-2317h-100v250h100V-2317L-788-2317z"/>
		</g>
	</g>
	<g display="inline">
		<g>
			<path fill="#E6E6E6" d="M-789-2317v99h-698v-99H-789 M-788-2318h-700v101h700V-2318L-788-2318z"/>
		</g>
	</g>
	<g display="inline">
		<path fill="#E6E6E6" d="M-1086.743-2066.086l178.185,178.185l-68.987,68.987l-178.185-178.185L-1086.743-2066.086
			 M-1086.743-2067.5l-70.401,70.401l179.599,179.599l70.401-70.401L-1086.743-2067.5L-1086.743-2067.5z"/>
	</g>
	<g display="inline">
		<g>
			<path fill="#E6E6E6" d="M-789-2116v98h-198v-98H-789 M-788-2117h-200v100h200V-2117L-788-2117z"/>
		</g>
	</g>
</g>
<g id="track">
	<path fill="none" stroke="#F15A24" stroke-miterlimit="10" d="M-1474.73-2317.476c-9.347,0-13.77,5.353-13.77,13.28
		c0,5.008,0,74.106,0,74.106c0,7.427,5.757,12.589,13.519,12.589c5.508,0,275.894,0,275.894,0c7.01,0,13.587,4.769,13.587,11.946
		c0,6.509,0,74.857,0,74.857c0,8.011,3.187,13.197,10.618,13.197c7.26,0,68.052,0,75.938,0c8.596,0,11.444-5.437,11.444-11.946
		c0-5.953,0-75.608,0-75.608c0-6.843,4.162-12.446,14.092-12.446c8.011,0,173.749,0,173.749,0c7.844,0,12.159,4.936,12.159,13.114
		c0,5.258,0,73.438,0,73.438c0,6.593-2.062,14.448-12.327,14.448c-7.511,0-74.939,0-74.939,0c-8.597,0-12.733,6.332-12.733,12.591
		s0,74.105,0,74.105c0,7.094,4.221,12.304,13.234,12.304c9.013,0,173.748,0,173.748,0c7.678,0,12.018-3.791,12.018-12.304
		c0-7.51,0-274.392,0-274.392c0-7.344-2.545-13.52-11.893-13.52C-807.652-2317.715-1474.73-2317.476-1474.73-2317.476z"/>
	<path fill="none" stroke="#F15A24" stroke-miterlimit="10" d="M-1088.5-1830c0,8.25-3.917,11.5-11.5,11.5c0,0-66.75,0-74.5,0
		c-8.167,0-13-3.084-13-11.5c0,0,0-215.5,0-223.25c0-9.583,4.25-14.25,13-14.25h82.5c6.164,0,9.045,3.788,11.545,6.288
		s223.59,223.704,223.59,223.704c7.472,7.471,3.865,19.008-9.51,19.008c-7,0-98.75,0-98.75,0c-8.5,0-11.688,1.312-16.875-3.875
		c-2.837-2.837-82.958-83.332-82.958-83.332c-8.875-8.876-23.542-2.21-23.542,10.457C-1088.5-1890.75-1088.5-1830-1088.5-1830z"/>
	<path fill="none" stroke="#F15A24" stroke-miterlimit="10" d="M935.059-1776.36"/>
	<g>
		<path fill="#F15A24" d="M421.229-2272.944c-9.486,0-14.229,5.331-14.229,13.225c0,4.987,0,73.798,0,73.798
			c0,7.396,6.351,12.921,14.227,12.921c5.591,0,176.501,0,176.501,0c7.115,0,13.272,4.365,13.272,11.512c0,6.482,0,74.545,0,74.545
			c0,7.978,3.753,13.943,11.295,13.943c7.369,0,69.073,0,77.077,0c8.724,0,10.628-6.214,10.628-12.696c0-5.929,0-75.294,0-75.294
			c0-6.814,5.212-12.01,15.29-12.01c8.133,0,176.354,0,176.354,0c7.962,0,12.356,4.53,12.356,12.675c0,5.236,0,73.133,0,73.133
			c0,6.565-2.108,15.192-12.526,15.192c-7.624,0-76.063,0-76.063,0c-8.726,0-13.41,5.501-13.41,11.734c0,6.233,0,73.797,0,73.797
			c0,7.064,4.771,12.469,13.919,12.469s176.353,0,176.353,0c7.793,0,11.729-3.991,11.729-12.469c0-7.479,0-273.25,0-273.25
			c0-7.313-2.476-13.463-11.963-13.463C994.669-2273.183,421.229-2272.944,421.229-2272.944z"/>
		<path fill="#F15A24" d="M835.196-1776.044c-8.627,0-11.862,1.308-17.128-3.858c-2.88-2.825-84.688-82.986-84.688-82.986
			c-9.008-8.839-24.381-2.2-24.381,10.414c0,4.48,0,64.979,0,64.979c0,8.216-3.002,11.496-10.7,11.496c0,0-67.751,0-75.616,0
			c-8.289,0-13.684-3.115-13.684-11.496c0,0,0-214.603,0-222.321c0-9.543,4.803-14.183,13.684-14.183h83.736
			c6.257,0,9.371,3.768,11.908,6.258l140.669,138.326c3.925,3.852,6.205,4.416,10.438,4.416c4.979,0,131.332,0,131.332,0
			s-5.414,0,0,0c5.413,0,13.232,3.521,13.232,11.82s0,74.688,0,74.688s0-4.646,0,0c0,4.647-2.979,12.596-12.96,12.596
			S835.196-1776.044,835.196-1776.044z"/>
	</g>
	<g>
		<path fill="#F15A24" d="M1097.121-2265.796c-9.455,0-14.121,5.332-14.121,13.227c0,4.987,0,73.797,0,73.797
			c0,7.396,6.207,12.772,14.058,12.772c5.571,0,279.095,0,279.095,0c7.093,0,12.848,4.515,12.848,11.661c0,6.482,0,74.546,0,74.546
			c0,7.978,4.122,13.793,11.639,13.793c7.346,0,68.843,0,76.82,0c8.695,0,11.541-6.065,11.541-12.546c0-5.929,0-75.294,0-75.294
			c0-6.814,4.246-12.159,14.291-12.159c8.104,0,175.766,0,175.766,0c7.935,0,11.943,4.68,11.943,12.825c0,5.236,0,73.133,0,73.133
			c0,6.564-1.729,15.042-12.113,15.042c-7.598,0-75.809,0-75.809,0c-8.697,0-13.078,5.65-13.078,11.883c0,6.233,0,73.798,0,73.798
			c0,7.065,4.466,12.319,13.584,12.319c9.117,0,175.765,0,175.765,0c7.767,0,11.651-3.842,11.651-12.319c0-7.48,0-273.25,0-273.25
			c0-7.313-2.417-13.463-11.873-13.463C1771.783-2266.033,1097.121-2265.796,1097.121-2265.796z"/>
		<path fill="#F15A24" d="M1488-1780.347c0,8.216-3.938,11.347-11.609,11.347c0,0-67.524,0-75.364,0
			c-8.261,0-14.026-2.966-14.026-11.347c0,0,0-214.604,0-222.321c0-9.543,5.175-13.332,14.026-13.332h83.457
			c6.235,0,9.15,3.342,11.679,5.833c2.529,2.49,226.186,222.506,226.186,222.506c7.558,7.439,3.91,18.661-9.621,18.661
			c-7.081,0-99.896,0-99.896,0c-8.599,0-11.823,1.359-17.071-3.807c-2.869-2.824-83.934-82.959-83.934-82.959
			c-8.979-8.839-23.826-2.174-23.826,10.439C1488-1840.844,1488-1780.347,1488-1780.347z"/>
	</g>
	<g>
		<g>
			<path fill="#FFFFFF" d="M96,89.439C96,90.854,94.854,92,93.439,92H2.561C1.146,92,0,90.854,0,89.439V2.561
				C0,1.146,1.146,0,2.561,0h90.879C94.854,0,96,1.146,96,2.561V89.439z"/>
		</g>
		<g>
			<path fill="#F50057" d="M16.38,15.366c-0.96,0-1.38,0.543-1.38,1.348c0,0.508,0,7.517,0,7.517c0,0.753,0.522,0.77,1.32,0.77
				c0.566,0,17.874,0,17.874,0C34.915,25,35,25.991,35,26.719c0,0.66,0,7.594,0,7.594C35,35.125,35.918,36,36.683,36
				c0.746,0,6.994,0,7.806,0C45.371,36,45,35.1,45,34.439c0-0.604,0-7.67,0-7.67c0-0.693,1.092-1.77,2.112-1.77
				c0.823,0,17.859,0,17.859,0C65.778,25,66,26.008,66,26.838c0,0.533,0,7.449,0,7.449C66,34.955,66.01,36,64.954,36
				c-0.771,0-7.702,0-7.702,0C56.368,36,56,36.395,56,37.029s0,7.517,0,7.517C56,45.266,56.377,46,57.303,46
				c0.927,0,17.859,0,17.859,0C75.951,46,76,45.41,76,44.546c0-0.762,0-27.832,0-27.832c0-0.745-0.045-1.372-1.006-1.372
				C74.247,15.342,16.38,15.366,16.38,15.366z"/>
			<path fill="#F50057" d="M46,64.61c0,0.837-0.636,1.39-1.415,1.39c0,0-6.861,0-7.658,0C36.088,66,35,65.464,35,64.61
				c0,0,0-21.859,0-22.646C35,40.993,36.027,41,36.927,41h8.48c0.634,0,0.93,0.145,1.187,0.398
				c0.257,0.252,33.878,33.609,33.878,33.609C81.239,75.766,80.869,77,79.494,77c-0.72,0-10.15,0-10.15,0
				c-0.874,0-1.201-0.051-1.734-0.578c-0.292-0.287-19.307-19.398-19.307-19.398C47.391,56.123,46,56.707,46,57.991
				C46,58.448,46,64.61,46,64.61z"/>
		</g>
	</g>
	<g>
		<g>
			<path fill="#4D4D4D" d="M1252-898c0,13.75-11.25,25-25,25H277c-13.75,0-25-11.25-25-25v-745c0-13.75,11.25-25,25-25h950
				c13.75,0,25,11.25,25,25V-898z"/>
		</g>
		<g>
			<path fill="#FFFFFF" d="M417.02-1518.477c-9.347,0-14.02,5.354-14.02,13.281c0,5.008,0,74.105,0,74.105
				c0,7.428,6.258,13.09,14.019,13.09c5.508,0,275.894,0,275.894,0c7.011,0,13.088,4.27,13.088,11.445c0,6.51,0,74.857,0,74.857
				c0,8.012,3.687,13.697,11.117,13.697c7.261,0,68.053,0,75.938,0c8.596,0,10.944-5.937,10.944-12.445c0-5.953,0-75.608,0-75.608
				c0-6.843,4.662-11.946,14.592-11.946c8.012,0,173.749,0,173.749,0c7.844,0,11.659,4.436,11.659,12.614c0,5.258,0,73.438,0,73.438
				c0,6.592-1.562,14.947-11.827,14.947c-7.511,0-74.939,0-74.939,0c-8.597,0-13.233,5.832-13.233,12.091s0,74.105,0,74.105
				c0,7.095,4.721,12.804,13.734,12.804c9.013,0,173.748,0,173.748,0c7.678,0,11.518-4.291,11.518-12.804
				c0-7.511,0-274.392,0-274.392c0-7.344-2.42-13.52-11.768-13.52C1083.973-1518.715,417.02-1518.477,417.02-1518.477z"/>
			<path fill="#FFFFFF" d="M803-1031c0,8.25-3.416,12-11,12c0,0-66.75,0-74.5,0c-8.166,0-13.5-3.584-13.5-12c0,0,0-215.5,0-223.25
				c0-9.583,4.75-13.75,13.5-13.75H800c6.164,0,9.045,3.538,11.545,6.038s223.59,223.829,223.59,223.829
				c7.472,7.471,3.865,19.133-9.51,19.133c-7,0-98.75,0-98.75,0c-8.5,0-11.688,1.062-16.875-4.125
				c-2.837-2.837-83.208-83.457-83.208-83.457c-8.876-8.876-23.792-2.335-23.792,10.332C803-1091.75,803-1031,803-1031z"/>
		</g>
	</g>
	<g>
		<g>
			<path fill="#4D4D4D" d="M2359-893c0,13.75-11.25,25-25,25h-857c-13.75,0-25-11.25-25-25v-750c0-13.75,11.25-25,25-25h857
				c13.75,0,25,11.25,25,25V-893z"/>
		</g>
		<g>
			<path fill="#FFFFFF" d="M1616.229-1516.944c-9.486,0-14.229,5.331-14.229,13.225c0,4.987,0,73.798,0,73.798
				c0,7.396,6.35,12.922,14.227,12.922c5.591,0,176.501,0,176.501,0c7.115,0,13.272,4.365,13.272,11.512c0,6.482,0,74.545,0,74.545
				c0,7.979,3.752,13.943,11.295,13.943c7.369,0,69.072,0,77.077,0c8.724,0,10.628-6.214,10.628-12.696c0-5.929,0-75.294,0-75.294
				c0-6.814,5.212-12.01,15.29-12.01c8.133,0,176.354,0,176.354,0c7.962,0,12.356,4.53,12.356,12.676c0,5.235,0,73.133,0,73.133
				c0,6.564-2.108,15.191-12.526,15.191c-7.624,0-76.063,0-76.063,0c-8.726,0-13.41,5.501-13.41,11.734c0,6.232,0,73.797,0,73.797
				c0,7.064,4.77,12.469,13.918,12.469s176.354,0,176.354,0c7.793,0,11.729-3.991,11.729-12.469c0-7.479,0-273.25,0-273.25
				c0-7.313-2.476-13.464-11.963-13.464C2189.668-1517.183,1616.229-1516.944,1616.229-1516.944z"/>
			<path fill="#FFFFFF" d="M2030.196-1020.044c-8.628,0-11.862,1.308-17.128-3.858c-2.88-2.825-84.688-82.986-84.688-82.986
				c-9.008-8.839-24.381-2.2-24.381,10.414c0,4.48,0,64.979,0,64.979c0,8.216-3.002,11.496-10.7,11.496c0,0-67.751,0-75.616,0
				c-8.289,0-13.684-3.115-13.684-11.496c0,0,0-214.604,0-222.321c0-9.543,4.803-14.183,13.684-14.183h83.736
				c6.257,0,9.371,3.768,11.908,6.258l140.669,138.326c3.925,3.852,6.204,4.416,10.438,4.416c4.979,0,131.332,0,131.332,0
				s-5.414,0,0,0c5.413,0,13.232,3.521,13.232,11.82s0,74.688,0,74.688s0-4.646,0,0c0,4.647-2.98,12.596-12.96,12.596
				C2186.06-1019.896,2030.196-1020.044,2030.196-1020.044z"/>
		</g>
	</g>
</g>
</svg>
