<?xml version="1.0" encoding="utf-8"?>
<!-- Generator: Adobe Illustrator 15.1.0, SVG Export Plug-In . SVG Version: 6.00 Build 0)  -->
<!DOCTYPE svg PUBLIC "-//W3C//DTD SVG 1.1//EN" "http://www.w3.org/Graphics/SVG/1.1/DTD/svg11.dtd">
<svg version="1.1" id="Layer_1" xmlns="http://www.w3.org/2000/svg" xmlns:xlink="http://www.w3.org/1999/xlink" x="0px" y="0px"
	 width="64px" height="64px" viewBox="0 0 64 64" enable-background="new 0 0 64 64" xml:space="preserve">
<g id="molde" display="none">
	<circle display="inline" fill="none" stroke="#E6E6E6" stroke-miterlimit="10" cx="1109.333" cy="-2289" r="12.5"/>
	<circle display="inline" fill="none" stroke="#E6E6E6" stroke-miterlimit="10" cx="1109.333" cy="-2215" r="12.5"/>
	<circle display="inline" fill="none" stroke="#E6E6E6" stroke-miterlimit="10" cx="1385.333" cy="-2190" r="12.5"/>
	<circle display="inline" fill="none" stroke="#E6E6E6" stroke-miterlimit="10" cx="1509.333" cy="-2190" r="12.5"/>
	<circle display="inline" fill="none" stroke="#E6E6E6" stroke-miterlimit="10" cx="1684.333" cy="-2190" r="12.5"/>
	<circle display="inline" fill="none" stroke="#E6E6E6" stroke-miterlimit="10" cx="1684.333" cy="-2115" r="12.5"/>
	<circle display="inline" fill="none" stroke="#E6E6E6" stroke-miterlimit="10" cx="1783.333" cy="-2289" r="12.5"/>
	<circle display="inline" fill="none" stroke="#E6E6E6" stroke-miterlimit="10" cx="1783.333" cy="-2065" r="12.5"/>
	<circle display="inline" fill="none" stroke="#E6E6E6" stroke-miterlimit="10" cx="1783.333" cy="-2015" r="12.5"/>
	<circle display="inline" fill="none" stroke="#E6E6E6" stroke-miterlimit="10" cx="1609.333" cy="-2015" r="12.5"/>
	<circle display="inline" fill="none" stroke="#E6E6E6" stroke-miterlimit="10" cx="1609.333" cy="-2090" r="12.5"/>
	<circle display="inline" fill="none" stroke="#E6E6E6" stroke-miterlimit="10" cx="1410.333" cy="-2115" r="12.5"/>
	<circle display="inline" fill="none" stroke="#E6E6E6" stroke-miterlimit="10" cx="1410.333" cy="-2039" r="12.5"/>
	<circle display="inline" fill="none" stroke="#E6E6E6" stroke-miterlimit="10" cx="1493.333" cy="-2039" r="12.5"/>
	<circle display="inline" fill="none" stroke="#E6E6E6" stroke-miterlimit="10" cx="1410.333" cy="-1815" r="12.5"/>
	<circle display="inline" fill="none" stroke="#E6E6E6" stroke-miterlimit="10" cx="1485.333" cy="-1815" r="12.5"/>
	<circle display="inline" fill="none" stroke="#E6E6E6" stroke-miterlimit="10" cx="1510.333" cy="-1882" r="12.5"/>
	<circle display="inline" fill="none" stroke="#E6E6E6" stroke-miterlimit="10" cx="1612.333" cy="-1815" r="12.5"/>
	<circle display="inline" fill="none" stroke="#E6E6E6" stroke-miterlimit="10" cx="1719.333" cy="-1815" r="12.5"/>
	<circle display="inline" fill="none" stroke="#E6E6E6" stroke-miterlimit="10" cx="1484.333" cy="-2115" r="12.5"/>
	
		<line display="inline" fill="none" stroke="#E6E6E6" stroke-miterlimit="10" x1="1138.314" y1="-2412.518" x2="1817.848" y2="-1732.984"/>
	
		<line display="inline" fill="none" stroke="#E6E6E6" stroke-miterlimit="10" x1="1068.314" y1="-2342.518" x2="1747.848" y2="-1662.984"/>
</g>
<g id="circulos" display="none">
	<circle display="inline" fill="none" stroke="#E6E6E6" stroke-miterlimit="10" cx="1597.333" cy="-2102.5" r="200"/>
	<circle display="inline" fill="none" stroke="#E6E6E6" stroke-miterlimit="10" cx="1609.547" cy="-1853.286" r="50"/>
	<circle display="inline" fill="none" stroke="#E6E6E6" stroke-miterlimit="10" cx="1247.333" cy="-2152.5" r="150"/>
	<circle display="inline" fill="none" stroke="#E6E6E6" stroke-miterlimit="10" cx="1298.135" cy="-1903.303" r="100"/>
	<circle display="inline" fill="none" stroke="#E6E6E6" stroke-miterlimit="10" cx="1597.333" cy="-2152.5" r="150"/>
</g>
<g id="base" display="none">
	<g display="inline">
		<path fill="#666666" d="M1478.833-2886c27.019,0,49,21.981,49,49s-21.981,49-49,49s-49-21.981-49-49S1451.814-2886,1478.833-2886
			 M1478.833-2887c-27.614,0-50,22.386-50,50s22.386,50,50,50s50-22.386,50-50S1506.447-2887,1478.833-2887L1478.833-2887z"/>
	</g>
	<g display="inline">
		<path fill="#666666" d="M1350.833-2848v98h-198v-98H1350.833 M1351.833-2849h-200v100h200V-2849L1351.833-2849z"/>
	</g>
	<g display="inline">
		<g>
			<path fill="#E6E6E6" d="M1496.833-2052v248h-98v-248H1496.833 M1497.833-2053h-100v250h100V-2053L1497.833-2053z"/>
		</g>
	</g>
	<g display="inline">
		<g>
			<path fill="#E6E6E6" d="M1496.833-2301v198h-98v-198H1496.833 M1497.833-2302h-100v200h100V-2302L1497.833-2302z"/>
		</g>
	</g>
	<g display="inline">
		<g>
			<path fill="#E6E6E6" d="M1795.833-2301v248h-98v-248H1795.833 M1796.833-2302h-100v250h100V-2302L1796.833-2302z"/>
		</g>
	</g>
	<g display="inline">
		<g>
			<path fill="#E6E6E6" d="M1795.833-2302v99h-698v-99H1795.833 M1796.833-2303h-700v101h700V-2303L1796.833-2303z"/>
		</g>
	</g>
	<g display="inline">
		<path fill="#E6E6E6" d="M1498.089-2051.086l178.185,178.185l-68.986,68.987l-178.186-178.185L1498.089-2051.086 M1498.089-2052.5
			l-70.401,70.401l179.6,179.599l70.4-70.401L1498.089-2052.5L1498.089-2052.5z"/>
	</g>
	<g display="inline">
		<g>
			<path fill="#E6E6E6" d="M1795.833-2101v98h-198v-98H1795.833 M1796.833-2102h-200v100h200V-2102L1796.833-2102z"/>
		</g>
	</g>
</g>
<rect x="-0.167" fill="#FFFFFF" width="64" height="64"/>
<g>
	<path fill="#6A1B9A" d="M12.438,10.611c-1.797,0-2.604,1.483-2.604,2.264c0,0.355,0,2.611,0,2.611c0,1.561,1.339,2.514,2.5,2.514
		c0.395,0,10.031,0,10.031,0c1.292,0,2.47,0.875,2.47,2.485c0,0.462,0,2.032,0,2.032c0,1.733,1.5,2.484,2.499,2.484
		c0.521,0,1.433,0,2,0c1.292,0,2.501-1.126,2.501-2.484c0-0.423,0-2,0-2c0-1.611,1.26-2.516,2.499-2.516c0.575,0,8.991,0,8.991,0
		c1.634,0,2.51,1.416,2.51,2.517c0,0.373,0,1.958,0,1.958c0,1.358-1.042,2.525-2.51,2.525c-0.54,0-1.93,0-1.93,0
		c-1.166,0-2.561,0.791-2.561,2.522c0,0.443,0,1.979,0,1.979c0,1.04,0.832,2.5,2.354,2.5c0.646,0,9.165,0,9.165,0
		c1.013,0,2.481-0.841,2.481-2.5c0-0.532,0-16.406,0-16.406c0-0.955-0.803-2.5-2.5-2.5C49.811,10.595,12.438,10.611,12.438,10.611z"
		/>
	<path fill="#6A1B9A" d="M31.833,46.055c0,1.133-0.854,2.549-2.5,2.549c0,0-1.443,0-2,0c-1.082,0-2.5-0.911-2.5-2.51
		c0,0,0-15.043,0-15.594c0-1.458,1.25-2.5,2.667-2.5h3.271c0.875,0,1.524,0.371,1.704,0.549
		c0.179,0.178,20.603,20.271,20.603,20.271C54.453,50.193,53.521,53,51.208,53c-0.502,0-2.841,0-2.841,0
		c-0.891,0-1.377-0.209-2.283-1.115c-0.203-0.201-10.005-10.672-10.005-10.672c-1.458-1.458-4.246-0.504-4.246,1.787
		C31.833,44.585,31.833,45.153,31.833,46.055z"/>
</g>
</svg>
