<?xml version="1.0" encoding="utf-8"?>
<!-- Generator: Adobe Illustrator 15.1.0, SVG Export Plug-In . SVG Version: 6.00 Build 0)  -->
<!DOCTYPE svg PUBLIC "-//W3C//DTD SVG 1.1//EN" "http://www.w3.org/Graphics/SVG/1.1/DTD/svg11.dtd">
<svg version="1.1" id="background" xmlns="http://www.w3.org/2000/svg" xmlns:xlink="http://www.w3.org/1999/xlink" x="0px" y="0px"
	 width="80px" height="80px" viewBox="0 0 80 80" enable-background="new 0 0 80 80" xml:space="preserve">
<rect fill="#F5005A" width="80" height="80"/>
<g>
	<path fill="#FFFFFF" d="M7.167,9C4.529,9,4,9.542,4,11.667c0,1.006,0,4.377,0,4.377C4,17.667,4.583,18,6.29,18
		c0.979,0,18.062,0,18.062,0C25.666,18,26,18.678,26,20.026c0,1.034,0,10.079,0,10.079c0,1.2,0.677,1.895,2.21,1.895h5.554
		C35.5,32,36,31.042,36,30.105c0-0.968,0-10.042,0-10.042C36,18.66,36.291,18,37.71,18c1.08,0,22.589,0,22.589,0
		c5.739,0,6.754,4.804,6.754,6.485c0,1.788-0.996,7.515-6.864,7.515c-1.181,0-8.71,0-8.71,0C49.852,32,49,32.317,49,33.72
		c0,0.812,0,4.065,0,4.065C49,39.371,49.852,40,51.441,40c0.96,0,8.747,0,8.747,0c10.389,0,15.594-8.854,15.594-16.015
		C75.782,17.854,70.55,9,60.188,9C59.137,9,7.167,9,7.167,9z"/>
	<path fill="#FFFFFF" d="M33.764,71c0,0-2.953,0-4.43,0C28.042,71,27,70.183,27,68.799c0-1.366,0-22.781,0-24.479
		c0-4.837,4.527-8.811,8.881-8.811c3.766,0,6.359,1.924,7.116,2.682c0.756,0.757,28.031,28.035,29.065,29.069
		c1.201,1.202,0.686,3.74-1.297,3.74c-1.983,0-5.818,0-7.369,0c-0.904,0-1.291-0.418-1.77-0.898
		c-0.48-0.479-20.723-20.792-21.79-21.86C38.129,46.533,36,47.837,36,49.71c0,1.588,0,17.87,0,19.088C36,70.044,35.064,71,33.764,71
		z"/>
</g>
</svg>
